# xmcd
#
# Track frame offsets: 
#        150
#        13274
#        25924
#        35660
#        43797
#        54233
#        65419
#        75443
#        88016
#        95603
#        108115
#        118919
#        131937
#        141924
#        155173
#        167098
#        177918
#        190714
#        200999
#        211848
#        221761
#        233897
#        245108
#        258769
#        271716
#        287038
#
# Disc length: 3982 seconds
#
# Revision: 1
# Processed by: cddbd v1.5.2PL0 Copyright (c) Steve Scherf et al.
# Submitted via: ExactAudioCopyFreeDBPlugin 1.0
#
DISCID=840f8c1a
DTITLE=Jim Reeves - Welcome To My World - CD 14
DYEAR=2001
DGENRE=Country
TTITLE0=Distant Drums
TTITLE1=Blue Side Of Lonesome
TTITLE2=The Storm
TTITLE3=Trying To Forget
TTITLE4=I Heard A Heart Break Last Night
TTITLE5=That's When I See The Blues (In Your Pretty Brown Eyes)
TTITLE6=When Two Worlds Collide
TTITLE7=Nobody's Fool
TTITLE8=Gypsy Feet
TTITLE9=The Writing's On The Wall
TTITLE10=Am I That Easy To Forget
TTITLE11=I'd Fight The World
TTITLE12=You Belong To Me
TTITLE13=You'll Never Know
TTITLE14=I Love You Because
TTITLE15=It's Nothin' To Me
TTITLE16=Little Ole Me
TTITLE17=You're The Only Good Thing (That's Happened To Me
TTITLE18=Don't Let Me Cross Over (& Deborah Allen)
TTITLE19=Oh, How I Miss You Tonight
TTITLE20=Take Me In Your Arms And Hold Me (& Deborah Allen)
TTITLE21=There's Always Me
TTITLE22=Have You Ever Been Lonely (& Patsy Cline)
TTITLE23=I Fall To Pieces (& Patsy Cline)
TTITLE24=The Jim Reeves Medley
TTITLE25=The Image Of Me
EXTD=
EXTT0=
EXTT1=
EXTT2=
EXTT3=
EXTT4=
EXTT5=
EXTT6=
EXTT7=
EXTT8=
EXTT9=
EXTT10=
EXTT11=
EXTT12=
EXTT13=
EXTT14=
EXTT15=
EXTT16=
EXTT17=
EXTT18=
EXTT19=
EXTT20=
EXTT21=
EXTT22=
EXTT23=
EXTT24=
EXTT25=
PLAYORDER=
